<?xml version="1.0" standalone="no"?>
<!DOCTYPE svg PUBLIC "-//W3C//DTD SVG 20010904//EN"
 "http://www.w3.org/TR/2001/REC-SVG-20010904/DTD/svg10.dtd">
<svg version="1.0" xmlns="http://www.w3.org/2000/svg"
 width="708.000000pt" height="708.000000pt" viewBox="0 0 708.000000 708.000000"
 preserveAspectRatio="xMidYMid meet">
<metadata>
Created by potrace 1.14, written by Peter Selinger 2001-2017
</metadata>
<g transform="translate(0.000000,708.000000) scale(0.100000,-0.100000)"
fill="#000000" stroke="none">
<path d="M3860 6427 c-3 -3 -27 -7 -55 -10 -107 -13 -206 -51 -261 -102 -22
-21 -962 -949 -1604 -1585 -201 -199 -648 -641 -994 -983 -865 -856 -916 -907
-933 -940 -16 -32 -15 -90 3 -127 36 -75 129 -106 201 -68 19 11 170 154 336
318 266 265 305 300 341 308 45 9 106 -6 139 -36 43 -37 58 -115 35 -169 -7
-15 -151 -167 -321 -337 -316 -316 -337 -342 -331 -408 4 -39 30 -84 64 -108
37 -27 64 -32 118 -25 39 6 58 21 224 183 333 325 422 413 574 562 84 82 167
158 185 169 65 40 165 15 203 -51 23 -38 24 -119 3 -152 -9 -13 -142 -149
-294 -301 -965 -960 -1146 -1143 -1155 -1165 -39 -98 40 -214 140 -206 17 1
41 3 52 4 12 1 117 96 248 226 125 123 306 301 402 396 96 94 401 395 678 668
277 274 552 545 612 604 59 58 118 112 130 118 12 7 44 13 70 13 53 2 106 -27
131 -72 21 -38 23 -104 4 -141 -9 -17 -409 -425 -890 -906 -666 -667 -876
-883 -885 -910 -31 -92 35 -190 134 -198 71 -6 38 -35 657 580 190 188 310
299 333 309 87 36 187 -22 203 -118 11 -72 -1 -88 -352 -438 -184 -183 -332
-336 -329 -340 2 -4 0 -9 -6 -11 -21 -7 -18 -87 4 -130 46 -91 157 -111 236
-41 14 12 212 207 440 433 228 227 427 418 442 426 73 38 172 2 204 -74 18
-43 14 -109 -8 -141 -9 -12 -136 -144 -282 -293 -147 -149 -272 -282 -277
-296 -35 -92 16 -191 107 -208 92 -17 -23 -125 1725 1620 87 88 159 157 159
155 0 -2 -6 -21 -14 -43 -24 -68 19 -167 86 -202 39 -20 108 -20 148 1 18 9
220 204 449 432 229 228 427 421 441 428 106 55 223 -32 205 -153 -6 -43 -27
-65 -590 -627 -320 -320 -590 -594 -599 -608 -22 -33 -23 -95 -2 -134 33 -66
124 -97 187 -66 14 7 185 173 380 369 195 196 386 388 424 426 39 39 85 77
103 85 35 14 88 11 122 -7 28 -15 67 -71 73 -104 11 -64 -8 -91 -194 -277 -98
-99 -185 -194 -192 -212 -15 -35 -6 -93 21 -135 16 -24 61 -49 102 -55 65 -10
72 -4 738 661 357 356 657 663 667 682 10 19 21 37 26 40 4 3 22 48 40 100 28
85 32 108 33 220 1 148 -4 193 -34 280 -28 79 -43 110 -87 177 -43 65 -2598
2625 -2643 2648 -96 50 -198 72 -338 74 -59 1 -110 0 -112 -2z"/>
</g>
</svg>
