<svg width="1312" height="289" viewBox="0 0 1312 289" fill="none" xmlns="http://www.w3.org/2000/svg">
<path d="M271.926 237.018C271.926 241.015 275.174 244.255 279.18 244.255C281.209 244.255 283.044 243.424 284.361 242.084L284.476 241.968L342.756 183.825C350.644 176.886 354 168.751 354 157.245C354 145.028 348.364 134.163 339.617 127.246C333.406 122.334 325.626 119.414 317.182 119.414C307.474 119.414 298.529 122.836 291.938 129.095L290.761 130.269L222.877 197.995L222.08 198.789C220.734 200.318 219.915 202.34 219.915 204.557C219.915 209.327 223.704 213.193 228.379 213.193C230.746 213.193 232.887 212.201 234.423 210.602L274.581 170.538C275.897 169.198 277.732 168.367 279.761 168.367C283.767 168.367 287.015 171.607 287.015 175.604C287.015 177.805 286.03 179.777 284.476 181.104L228.867 236.584C227.313 237.911 226.328 239.883 226.328 242.084C226.328 246.081 229.576 249.321 233.582 249.321C235.611 249.321 237.446 248.49 238.762 247.15L279.296 206.26C280.612 204.92 282.447 204.089 284.476 204.089C288.483 204.089 291.73 207.329 291.73 211.326C291.73 213.527 290.746 215.498 289.191 216.826L274.465 231.518C272.911 232.845 271.926 234.817 271.926 237.018Z" fill="#0A3A24"/>
<path d="M317.182 119.414C325.626 119.414 333.406 122.334 339.617 127.246L322.041 109.643C295.242 102.044 284.361 114.709 278.15 120.818L162.766 235.932C160.953 238.827 157.688 234.847 159.502 233.037L275.248 117.561C291.164 101.682 306.123 102.044 318.092 105.688L232.641 20.1084C231.906 19.6823 229.668 18.8592 228.504 18.4548C204.13 11.5071 188.365 20.626 183.529 26.0539L59.8465 149.448C58.033 152.343 54.7686 148.362 56.5821 146.553L180.627 22.7971C197.747 7.16482 224.125 11.5795 228.504 15.965L217.618 5.0628C212.795 1.68756 206.074 0 198.64 0C188.203 0 180.264 2.17116 175.549 7.23719L1.93947 179.12C0.733379 180.465 0 182.24 0 184.186C0 188.383 3.41016 191.785 7.6168 191.785C9.5676 191.785 11.3473 191.054 12.6949 189.851L41.3485 161.264C42.6961 160.06 44.4756 159.329 46.4264 159.329C50.6331 159.329 54.0432 162.731 54.0432 166.928C54.0432 168.874 53.3098 170.649 52.1037 171.994L22.7095 201.319C21.5034 202.664 20.7701 204.439 20.7701 206.385C20.7701 210.582 24.1802 213.985 28.3869 213.985C30.3377 213.985 32.1172 213.253 33.4647 212.05L77.619 168.863C78.9666 167.659 80.7461 166.928 82.6969 166.928C86.9035 166.928 90.3137 170.33 90.3137 174.527C90.3137 176.473 89.5803 178.248 88.3742 179.593L18.2614 249.321C17.0553 250.666 16.3219 252.441 16.3219 254.387C16.3219 258.584 19.7321 261.986 23.9387 261.986C25.8895 261.986 27.669 261.255 29.0166 260.051L128.398 162.113C129.745 160.91 131.525 160.178 133.476 160.178C137.682 160.178 141.092 163.58 141.092 167.777C141.092 169.723 140.359 171.499 139.153 172.843L52.9551 259.091C51.749 260.436 51.0156 262.211 51.0156 264.157C51.0156 268.354 54.4258 271.756 58.6324 271.756C60.5832 271.756 62.3627 271.025 63.7103 269.821L105.311 228.585C106.658 227.381 108.438 226.65 110.388 226.65C114.595 226.65 118.005 230.052 118.005 234.249C118.005 236.195 117.272 237.97 116.066 239.315L84.6364 270.671C83.4303 272.015 82.6969 273.791 82.6969 275.737C82.6969 279.934 86.107 283.336 90.3137 283.336C92.2645 283.336 94.044 282.604 95.3916 281.401L137.828 239.315C139.176 238.111 140.955 237.38 142.906 237.38C147.113 237.38 150.523 240.782 150.523 244.979C150.523 246.925 149.789 248.7 148.583 250.045L122.72 276.335C121.514 277.679 120.781 279.455 120.781 281.401C120.781 285.598 124.191 289 128.398 289C130.348 289 132.128 288.268 133.476 287.065L222.08 198.789C222.328 198.507 222.595 198.241 222.877 197.995L290.761 130.269C291.144 129.867 291.537 129.476 291.938 129.095C298.529 122.836 307.474 119.414 317.182 119.414Z" fill="#2F8245"/>
<path d="M228.504 15.965C224.125 11.5795 197.747 7.16482 180.627 22.7971L56.5821 146.553C54.7686 148.362 58.033 152.343 59.8465 149.448L183.529 26.0539C188.365 20.626 204.13 11.5071 228.504 18.4548C229.668 18.8592 231.906 19.6823 232.641 20.1084L228.504 15.965Z" fill="#0A3A24"/>
<path d="M318.092 105.688C306.123 102.044 291.164 101.682 275.248 117.561L159.502 233.037C157.688 234.847 160.953 238.827 162.766 235.932L278.15 120.818C284.361 114.709 295.242 102.044 322.041 109.643L318.092 105.688Z" fill="#0A3A24"/>
<circle cx="194" cy="107" r="48.5" stroke="#0A3A24" stroke-width="9"/>
<circle cx="193.5" cy="106.5" r="42.5" fill="#0A3A24"/>
<path d="M215.014 99.5355C217.728 102.25 219.083 105.562 219.078 109.472C219.045 112.905 217.764 116.444 215.234 120.091C214.659 120.919 214.723 122.047 215.436 122.76L218.335 125.659C219.116 126.44 219.116 127.706 218.335 128.487L216.27 130.552C215.489 131.333 214.223 131.333 213.442 130.552L210.783 127.893C210.032 127.142 208.828 127.114 208.005 127.784C205.876 129.517 203.626 130.976 201.254 132.163C198.946 133.317 196.801 134.101 194.818 134.516C193.924 134.703 193.059 134.171 192.731 133.319L190.822 128.357C190.361 127.159 191.135 125.842 192.376 125.516C193.763 125.151 195.174 124.644 196.61 123.996C198.23 123.265 199.758 122.394 201.195 121.383C202.159 120.705 202.22 119.33 201.386 118.497L195.76 112.87C195.107 112.218 194.095 112.099 193.297 112.562C190.954 113.923 188.818 114.984 186.89 115.743C184.596 116.647 182.249 116.974 179.848 116.727C177.415 116.446 175.089 115.197 172.871 112.979C170.124 110.232 168.752 106.903 168.757 102.993C168.76 99.4738 170.05 95.8868 172.627 92.232C173.212 91.4019 173.153 90.2635 172.435 89.5454L169.598 86.7083C168.817 85.9273 168.817 84.6609 169.598 83.8799L171.663 81.8152C172.444 81.0341 173.71 81.0341 174.491 81.8152L177.187 84.5106C177.923 85.2466 179.097 85.2901 179.918 84.6506C183.244 82.0609 186.556 80.2819 189.855 79.3139C190.773 79.0445 191.722 79.5432 192.099 80.4226L194.2 85.3337C194.68 86.4556 194.05 87.7369 192.896 88.1341C190.703 88.8891 188.693 89.8628 186.867 91.055C185.865 91.7092 185.786 93.1102 186.632 93.9564L192.36 99.6839C193.018 100.342 194.041 100.456 194.842 99.9824C197.119 98.6363 199.204 97.5991 201.095 96.8709C203.355 95.9345 205.702 95.6066 208.136 95.8872C210.536 96.1348 212.829 97.3509 215.014 99.5355ZM180.352 104.704C181.18 105.532 182.168 105.9 183.317 105.81C183.795 105.773 184.307 105.673 184.852 105.511C186.143 105.127 186.383 103.493 185.43 102.54L182.093 99.2034C181.178 98.2886 179.604 98.4655 179.237 99.7062C179.043 100.367 178.963 100.994 178.999 101.589C179.04 102.805 179.491 103.843 180.352 104.704ZM205.866 113.19C206.772 114.096 208.332 113.934 208.715 112.71C208.899 112.122 208.99 111.561 208.986 111.025C208.977 109.842 208.559 108.837 207.731 108.009C206.904 107.182 205.915 106.813 204.766 106.903C204.344 106.925 203.892 106.996 203.41 107.115C202.075 107.447 201.799 109.123 202.772 110.096L205.866 113.19Z" fill="#42AB5E"/>
<path d="M420 89.835C420 85.4167 423.582 81.835 428 81.835H485.19C500.77 81.835 514.505 84.8417 526.395 90.855C538.422 96.7317 547.715 105.068 554.275 115.865C560.972 126.662 564.32 139.235 564.32 153.585C564.32 167.935 560.972 180.508 554.275 191.305C547.715 202.102 538.422 210.507 526.395 216.52C514.505 222.397 500.77 225.335 485.19 225.335H428C423.582 225.335 420 221.753 420 217.335V89.835ZM483.55 198.07C497.9 198.07 509.312 194.107 517.785 186.18C526.395 178.117 530.7 167.252 530.7 153.585C530.7 139.918 526.395 129.122 517.785 121.195C509.312 113.132 497.9 109.1 483.55 109.1H461.21C456.792 109.1 453.21 112.682 453.21 117.1V190.07C453.21 194.488 456.792 198.07 461.21 198.07H483.55Z" fill="#2F8245"/>
<path d="M639.59 226.975C627.974 226.975 617.519 224.583 608.225 219.8C599.069 214.88 591.894 208.115 586.7 199.505C581.507 190.895 578.91 181.123 578.91 170.19C578.91 159.257 581.507 149.485 586.7 140.875C591.894 132.265 599.069 125.568 608.225 120.785C617.519 115.865 627.974 113.405 639.59 113.405C651.207 113.405 661.594 115.865 670.75 120.785C679.907 125.568 687.082 132.265 692.275 140.875C697.469 149.485 700.065 159.257 700.065 170.19C700.065 181.123 697.469 190.895 692.275 199.505C687.082 208.115 679.907 214.88 670.75 219.8C661.594 224.583 651.207 226.975 639.59 226.975ZM639.59 200.735C647.79 200.735 654.487 198.002 659.68 192.535C665.01 186.932 667.675 179.483 667.675 170.19C667.675 160.897 665.01 153.517 659.68 148.05C654.487 142.447 647.79 139.645 639.59 139.645C631.39 139.645 624.625 142.447 619.295 148.05C613.965 153.517 611.3 160.897 611.3 170.19C611.3 179.483 613.965 186.932 619.295 192.535C624.625 198.002 631.39 200.735 639.59 200.735Z" fill="#2F8245"/>
<path d="M721.441 81.225C721.441 76.8067 725.023 73.225 729.441 73.225H745.421C749.84 73.225 753.421 76.8067 753.421 81.225V217.335C753.421 221.753 749.84 225.335 745.421 225.335H729.441C725.023 225.335 721.441 221.753 721.441 217.335V81.225Z" fill="#2F8245"/>
<path d="M783.101 81.225C783.101 76.8067 786.683 73.225 791.101 73.225H807.081C811.5 73.225 815.081 76.8067 815.081 81.225V217.335C815.081 221.753 811.5 225.335 807.081 225.335H791.101C786.683 225.335 783.101 221.753 783.101 217.335V81.225Z" fill="#2F8245"/>
<path d="M889.247 113.405C906.33 113.405 919.45 117.505 928.607 125.705C937.763 133.768 942.342 146 942.342 162.4V217.335C942.342 221.753 938.76 225.335 934.342 225.335H915.346C913.725 225.335 912.412 224.021 912.412 222.401V222.401C912.412 219.409 907.695 217.838 905.32 219.656C898.949 224.535 890.106 226.975 878.792 226.975C870.318 226.975 862.938 225.54 856.652 222.67C850.502 219.8 845.787 215.837 842.507 210.78C839.227 205.723 837.587 199.983 837.587 193.56C837.587 183.31 841.413 175.247 849.067 169.37C856.857 163.493 868.815 160.555 884.942 160.555H902.362C906.78 160.555 910.583 156.876 909.248 152.664C908.217 149.41 906.47 146.71 904.007 144.565C899.77 140.738 893.415 138.825 884.942 138.825C879.065 138.825 873.257 139.782 867.517 141.695C865.382 142.372 863.367 143.148 861.471 144.022C856.891 146.136 851.019 144.894 848.714 140.408L844.866 132.919C843.043 129.37 844.092 124.972 847.601 123.073C852.25 120.556 857.454 118.495 863.212 116.89C871.685 114.567 880.363 113.405 889.247 113.405ZM886.787 205.45C892.253 205.45 897.105 204.22 901.342 201.76C905.196 199.398 908.032 196.074 909.851 191.789C910.212 190.936 910.362 190.011 910.362 189.085V187.21C910.362 182.792 906.78 179.21 902.362 179.21H888.427C875.307 179.21 868.747 183.515 868.747 192.125C868.747 196.225 870.318 199.505 873.462 201.965C876.742 204.288 881.183 205.45 886.787 205.45Z" fill="#2F8245"/>
<path d="M1001.83 118.589C1001.83 122.031 1006.77 123.845 1009.55 121.815C1011.86 120.132 1014.41 118.695 1017.21 117.505C1021.63 115.663 1026.48 114.442 1031.77 113.841C1036.16 113.343 1039.76 116.987 1039.76 121.405V135.737C1039.76 139.614 1036.46 142.515 1032.58 142.515V142.515C1023.42 142.515 1016.25 145.112 1011.06 150.305C1005.86 155.362 1003.27 163.015 1003.27 173.265V217.335C1003.27 221.753 999.683 225.335 995.265 225.335H979.285C974.867 225.335 971.285 221.753 971.285 217.335V123.045C971.285 118.627 974.867 115.045 979.285 115.045H998.287C1000.24 115.045 1001.83 116.631 1001.83 118.589V118.589Z" fill="#2F8245"/>
<path d="M1058.77 123.045C1058.77 118.627 1062.35 115.045 1066.77 115.045H1082.75C1087.17 115.045 1090.75 118.627 1090.75 123.045V217.335C1090.75 221.753 1087.17 225.335 1082.75 225.335H1066.77C1062.35 225.335 1058.77 221.753 1058.77 217.335V123.045ZM1074.76 99.67C1068.88 99.67 1064.1 97.9617 1060.41 94.545C1056.72 91.1283 1054.88 86.8917 1054.88 81.835C1054.88 76.7783 1056.72 72.5417 1060.41 69.125C1064.1 65.7083 1068.88 64 1074.76 64C1080.64 64 1085.42 65.64 1089.11 68.92C1092.8 72.2 1094.65 76.3 1094.65 81.22C1094.65 86.55 1092.8 90.9917 1089.11 94.545C1085.42 97.9617 1080.64 99.67 1074.76 99.67Z" fill="#2F8245"/>
<path d="M1155.49 112.79C1155.49 115.394 1157.6 117.505 1160.2 117.505H1175.78C1180.19 117.505 1183.78 121.087 1183.78 125.505V134.105C1183.78 138.523 1180.19 142.105 1175.78 142.105H1164.31C1159.89 142.105 1156.31 145.687 1156.31 150.105V217.335C1156.31 221.753 1152.72 225.335 1148.31 225.335H1132.33C1127.91 225.335 1124.33 221.753 1124.33 217.335V150.105C1124.33 145.687 1120.74 142.105 1116.33 142.105H1115.31C1110.89 142.105 1107.31 138.523 1107.31 134.105V125.505C1107.31 121.087 1110.89 117.505 1115.31 117.505H1119.41C1122.12 117.505 1124.33 115.302 1124.33 112.585V112.585C1124.33 100.012 1128.02 90.035 1135.4 82.655C1142.91 75.275 1153.44 71.585 1166.97 71.585C1171.75 71.585 1176.26 72.1317 1180.5 73.225C1182.39 73.6392 1184.14 74.1432 1185.75 74.7368C1189.21 76.0106 1190.48 79.9673 1189.22 83.4322L1186.52 90.8603C1184.73 95.8155 1178.51 97.6598 1173.28 96.9989C1172.23 96.8663 1171.15 96.8 1170.04 96.8C1160.34 96.8 1155.49 102.13 1155.49 112.79V112.79Z" fill="#2F8245"/>
<path d="M1299.08 115.045C1304.82 115.045 1308.69 120.901 1306.44 126.178L1261.36 232.1C1256.31 244.81 1250.02 253.762 1242.5 258.955C1235.12 264.148 1226.17 266.745 1215.65 266.745C1209.91 266.745 1204.24 265.857 1198.63 264.08C1195.4 263.053 1192.5 261.797 1189.94 260.313C1186.78 258.476 1186.07 254.424 1187.74 251.171L1192.06 242.749C1194.35 238.29 1200.32 237.244 1204.99 239.07V239.07C1208.27 240.3 1211.48 240.915 1214.62 240.915C1219 240.915 1222.55 239.822 1225.28 237.635C1228.02 235.585 1230.48 232.1 1232.66 227.18V227.18C1232.93 226.524 1232.92 225.79 1232.64 225.141L1190.11 126.205C1187.84 120.925 1191.71 115.045 1197.46 115.045H1212.97C1216.2 115.045 1219.12 116.996 1220.36 119.987L1241.9 172.06C1244.62 178.641 1253.94 178.652 1256.68 172.077L1278.38 119.97C1279.62 116.988 1282.53 115.045 1285.76 115.045H1299.08Z" fill="#2F8245"/>
</svg>
