<svg width="354" height="289" viewBox="0 0 354 289" fill="none" xmlns="http://www.w3.org/2000/svg">
<path d="M271.926 237.018C271.926 241.015 275.174 244.255 279.18 244.255C281.209 244.255 283.044 243.424 284.361 242.084L284.476 241.968L342.756 183.825C350.644 176.886 354 168.751 354 157.245C354 145.028 348.364 134.163 339.617 127.246C333.406 122.334 325.626 119.414 317.182 119.414C307.474 119.414 298.529 122.836 291.938 129.095L290.761 130.269L222.877 197.995L222.08 198.789C220.734 200.318 219.915 202.34 219.915 204.557C219.915 209.327 223.704 213.193 228.379 213.193C230.746 213.193 232.887 212.201 234.423 210.602L274.581 170.538C275.897 169.198 277.732 168.367 279.761 168.367C283.767 168.367 287.015 171.607 287.015 175.604C287.015 177.805 286.03 179.777 284.476 181.104L228.867 236.584C227.313 237.911 226.328 239.883 226.328 242.084C226.328 246.081 229.576 249.321 233.582 249.321C235.611 249.321 237.446 248.49 238.762 247.15L279.296 206.26C280.612 204.92 282.447 204.089 284.476 204.089C288.483 204.089 291.73 207.329 291.73 211.326C291.73 213.527 290.746 215.498 289.191 216.826L274.465 231.518C272.911 232.845 271.926 234.817 271.926 237.018Z" fill="#829A8F"/>
<path d="M317.182 119.414C325.626 119.414 333.406 122.334 339.617 127.246L322.041 109.643C295.242 102.044 284.361 114.709 278.15 120.818L162.766 235.932C160.953 238.827 157.688 234.847 159.502 233.037L275.248 117.561C291.164 101.682 306.123 102.044 318.092 105.688L232.641 20.1084C231.906 19.6823 229.668 18.8592 228.504 18.4548C204.13 11.5071 188.365 20.626 183.529 26.0539L59.8465 149.448C58.033 152.343 54.7686 148.362 56.5821 146.553L180.627 22.7971C197.747 7.16481 224.125 11.5795 228.504 15.965L217.618 5.0628C212.795 1.68756 206.074 0 198.64 0C188.203 0 180.264 2.17116 175.549 7.23719L1.93947 179.12C0.733379 180.465 0 182.24 0 184.186C0 188.383 3.41016 191.785 7.6168 191.785C9.5676 191.785 11.3473 191.054 12.6949 189.851L41.3485 161.264C42.6961 160.06 44.4756 159.329 46.4264 159.329C50.6331 159.329 54.0432 162.731 54.0432 166.928C54.0432 168.874 53.3098 170.649 52.1037 171.994L22.7095 201.319C21.5034 202.664 20.7701 204.439 20.7701 206.385C20.7701 210.582 24.1802 213.985 28.3869 213.985C30.3377 213.985 32.1172 213.253 33.4647 212.05L77.619 168.863C78.9666 167.659 80.7461 166.928 82.6969 166.928C86.9035 166.928 90.3137 170.33 90.3137 174.527C90.3137 176.473 89.5803 178.248 88.3742 179.593L18.2614 249.321C17.0553 250.666 16.3219 252.441 16.3219 254.387C16.3219 258.584 19.7321 261.986 23.9387 261.986C25.8895 261.986 27.669 261.255 29.0166 260.051L128.398 162.113C129.745 160.91 131.525 160.178 133.476 160.178C137.682 160.178 141.092 163.58 141.092 167.777C141.092 169.723 140.359 171.499 139.153 172.843L52.9551 259.091C51.749 260.436 51.0156 262.211 51.0156 264.157C51.0156 268.354 54.4258 271.756 58.6324 271.756C60.5832 271.756 62.3627 271.025 63.7103 269.821L105.311 228.585C106.658 227.381 108.438 226.65 110.388 226.65C114.595 226.65 118.005 230.052 118.005 234.249C118.005 236.195 117.272 237.97 116.066 239.315L84.6364 270.671C83.4303 272.015 82.6969 273.791 82.6969 275.737C82.6969 279.934 86.107 283.336 90.3137 283.336C92.2645 283.336 94.044 282.604 95.3916 281.401L137.828 239.315C139.176 238.111 140.955 237.38 142.906 237.38C147.113 237.38 150.523 240.782 150.523 244.979C150.523 246.925 149.789 248.7 148.583 250.045L122.72 276.335C121.514 277.679 120.781 279.455 120.781 281.401C120.781 285.598 124.191 289 128.398 289C130.348 289 132.128 288.268 133.476 287.065L222.08 198.789C222.328 198.507 222.595 198.241 222.877 197.995L290.761 130.269C291.144 129.867 291.537 129.476 291.938 129.095C298.529 122.836 307.474 119.414 317.182 119.414Z" fill="#F9F9F9"/>
<path d="M228.504 15.965C224.125 11.5795 197.747 7.16481 180.627 22.7971L56.5821 146.553C54.7686 148.362 58.033 152.343 59.8465 149.448L183.529 26.0539C188.365 20.626 204.13 11.5071 228.504 18.4548C229.668 18.8592 231.906 19.6823 232.641 20.1084L228.504 15.965Z" fill="#164B33"/>
<path d="M318.092 105.688C306.123 102.044 291.164 101.682 275.248 117.561L159.502 233.037C157.688 234.847 160.953 238.827 162.766 235.932L278.15 120.818C284.361 114.709 295.242 102.044 322.041 109.643L318.092 105.688Z" fill="#164B33"/>
<circle cx="194" cy="107" r="48.5" stroke="#164B33" stroke-width="9"/>
<circle cx="193.5" cy="106.5" r="42.5" fill="#164B33"/>
<path d="M215.014 99.5355C217.728 102.25 219.083 105.562 219.078 109.472C219.045 112.905 217.764 116.444 215.234 120.091C214.659 120.919 214.723 122.047 215.436 122.76L218.335 125.659C219.116 126.44 219.116 127.706 218.335 128.487L216.27 130.552C215.489 131.333 214.223 131.333 213.442 130.552L210.783 127.893C210.032 127.142 208.828 127.114 208.005 127.784C205.876 129.517 203.626 130.976 201.254 132.163C198.946 133.317 196.801 134.101 194.818 134.516C193.924 134.703 193.059 134.171 192.731 133.319L190.822 128.357C190.361 127.159 191.135 125.842 192.376 125.516C193.763 125.151 195.174 124.644 196.61 123.996C198.23 123.265 199.758 122.394 201.195 121.383C202.159 120.705 202.22 119.33 201.386 118.497L195.76 112.87C195.107 112.218 194.095 112.099 193.297 112.562C190.954 113.923 188.818 114.984 186.89 115.743C184.596 116.647 182.249 116.974 179.848 116.727C177.415 116.446 175.089 115.197 172.871 112.979C170.124 110.232 168.752 106.903 168.757 102.993C168.76 99.4738 170.05 95.8868 172.627 92.232C173.212 91.4019 173.153 90.2635 172.435 89.5454L169.598 86.7083C168.817 85.9273 168.817 84.6609 169.598 83.8799L171.663 81.8152C172.444 81.0341 173.71 81.0341 174.491 81.8152L177.187 84.5106C177.923 85.2466 179.097 85.2901 179.918 84.6506C183.244 82.0609 186.556 80.2819 189.855 79.3139C190.773 79.0445 191.722 79.5432 192.099 80.4226L194.2 85.3337C194.68 86.4556 194.05 87.7369 192.896 88.1341C190.703 88.8891 188.693 89.8628 186.867 91.055C185.865 91.7092 185.786 93.1102 186.632 93.9564L192.36 99.6839C193.018 100.342 194.041 100.456 194.842 99.9824C197.119 98.6363 199.204 97.5991 201.095 96.8709C203.355 95.9345 205.702 95.6066 208.136 95.8872C210.536 96.1348 212.829 97.3509 215.014 99.5355ZM180.352 104.704C181.18 105.532 182.168 105.9 183.317 105.81C183.795 105.773 184.307 105.673 184.852 105.511C186.143 105.127 186.383 103.493 185.43 102.54L182.093 99.2034C181.178 98.2886 179.604 98.4655 179.237 99.7062C179.043 100.367 178.963 100.994 178.999 101.589C179.04 102.805 179.491 103.843 180.352 104.704ZM205.866 113.19C206.772 114.096 208.332 113.934 208.715 112.71C208.899 112.122 208.99 111.561 208.986 111.025C208.977 109.842 208.559 108.837 207.731 108.009C206.904 107.182 205.915 106.813 204.766 106.903C204.344 106.925 203.892 106.996 203.41 107.115C202.075 107.447 201.799 109.123 202.772 110.096L205.866 113.19Z" fill="#F9F9F9"/>
</svg>
